<?xml version="1.0" encoding="UTF-8"?>
<svg id="Capa_1" xmlns="http://www.w3.org/2000/svg" version="1.1" viewBox="0 0 48 48">
  <!-- Generator: Adobe Illustrator 29.5.1, SVG Export Plug-In . SVG Version: 2.1.0 Build 141)  -->
  <defs>
    <style>
      .st0 {
        fill: #1c0802;
      }

      .st1 {
        fill: #ff5722;
      }
    </style>
  </defs>
  <path class="st1" d="M0,5.33C0,2.39,2.39,0,5.33,0h37.33C45.61,0,48,2.39,48,5.33v37.33c0,2.95-2.39,5.33-5.33,5.33H5.33C2.39,48,0,45.61,0,42.67V5.33Z"/>
  <path class="st0" d="M4,4v40h40V4H4ZM23.59,33.33l-1.02-3.88h-5.22l-1.01,3.88h-4.05l5.92-18.96h3.5l5.96,18.96h-4.09ZM33.13,33.33h-3.7v-14.09h3.7v14.09ZM32.74,17.01c-.36.37-.85.56-1.47.56s-1.1-.19-1.47-.56-.54-.84-.54-1.41.18-1.04.55-1.41.85-.55,1.46-.55,1.09.18,1.46.55.55.83.55,1.41c0,.56-.18,1.03-.54,1.41Z"/>
  <path class="st0" d="M18.19,26.26h3.54l-1.77-6.76-1.77,6.76Z"/>
</svg>