<?xml version="1.0" encoding="UTF-8" standalone="no"?>
<!-- Uploaded to: SVG Repo, www.svgrepo.com, Generator: SVG Repo Mixer Tools -->

<svg
   fill="#000000"
   width="800px"
   height="800px"
   viewBox="0 0 50 50"
   version="1.2"
   overflow="inherit"
   id="svg4"
   sodipodi:docname="art2-icon.svg"
   inkscape:version="1.2.1 (9c6d41e410, 2022-07-14)"
   xmlns:inkscape="http://www.inkscape.org/namespaces/inkscape"
   xmlns:sodipodi="http://sodipodi.sourceforge.net/DTD/sodipodi-0.dtd"
   xmlns="http://www.w3.org/2000/svg"
   xmlns:svg="http://www.w3.org/2000/svg">
  <defs
     id="defs8" />
  <sodipodi:namedview
     id="namedview6"
     pagecolor="#ffffff"
     bordercolor="#cccccc"
     borderopacity="1"
     inkscape:showpageshadow="0"
     inkscape:pageopacity="1"
     inkscape:pagecheckerboard="0"
     inkscape:deskcolor="#d1d1d1"
     showgrid="false"
     inkscape:zoom="1.04625"
     inkscape:cx="264.27718"
     inkscape:cy="400.4779"
     inkscape:window-width="1920"
     inkscape:window-height="1017"
     inkscape:window-x="-8"
     inkscape:window-y="-8"
     inkscape:window-maximized="1"
     inkscape:current-layer="svg4" />
  <path
     d="M21.211 6c-12.632 0-20.211 10.133-20.211 15.2s2.526 8.867 7.579 8.867 7.58 1.266 7.58 5.066c0 5.066 3.789 8.866 8.842 8.866 16.422 0 24-8.866 24-17.732-.001-15.2-12.635-20.267-27.79-20.267zm-3.158 5.067c1.744 0 3.158 1.418 3.158 3.166 0 1.75-1.414 3.167-3.158 3.167s-3.158-1.418-3.158-3.167c0-1.748 1.414-3.166 3.158-3.166zm10.104 0c1.744 0 3.158 1.418 3.158 3.166 0 1.75-1.414 3.167-3.158 3.167-1.743 0-3.157-1.418-3.157-3.167 0-1.748 1.414-3.166 3.157-3.166zm10.106 5.066c1.745 0 3.159 1.417 3.159 3.167 0 1.75-1.414 3.166-3.159 3.166-1.744 0-3.157-1.417-3.157-3.166-.001-1.749 1.413-3.167 3.157-3.167zm-29.052 2.534c1.744 0 3.157 1.417 3.157 3.165 0 1.75-1.414 3.167-3.157 3.167s-3.158-1.418-3.158-3.167c0-1.748 1.414-3.165 3.158-3.165zm15.789 12.666c2.093 0 3.789 1.7 3.789 3.801 0 2.098-1.696 3.799-3.789 3.799s-3.789-1.701-3.789-3.799c0-2.101 1.696-3.801 3.789-3.801z"
     id="path2"
     style="fill:#ffffff" />
</svg>
