<?xml version="1.0" encoding="UTF-8" standalone="no"?>
<!-- Uploaded to: SVG Repo, www.svgrepo.com, Generator: SVG Repo Mixer Tools -->

<svg
   width="800px"
   height="800px"
   viewBox="0 0 24 24"
   fill="none"
   version="1.1"
   id="svg6"
   sodipodi:docname="gear-icon.svg"
   inkscape:version="1.2.1 (9c6d41e410, 2022-07-14)"
   xmlns:inkscape="http://www.inkscape.org/namespaces/inkscape"
   xmlns:sodipodi="http://sodipodi.sourceforge.net/DTD/sodipodi-0.dtd"
   xmlns="http://www.w3.org/2000/svg"
   xmlns:svg="http://www.w3.org/2000/svg">
  <defs
     id="defs10" />
  <sodipodi:namedview
     id="namedview8"
     pagecolor="#ffffff"
     bordercolor="#cccccc"
     borderopacity="1"
     inkscape:showpageshadow="0"
     inkscape:pageopacity="1"
     inkscape:pagecheckerboard="0"
     inkscape:deskcolor="#d1d1d1"
     showgrid="false"
     inkscape:zoom="0.73981047"
     inkscape:cx="122.32863"
     inkscape:cy="383.8821"
     inkscape:window-width="1920"
     inkscape:window-height="1017"
     inkscape:window-x="-8"
     inkscape:window-y="-8"
     inkscape:window-maximized="1"
     inkscape:current-layer="svg6" />
  <path
     d="M15 12C15 13.6569 13.6569 15 12 15C10.3431 15 9 13.6569 9 12C9 10.3431 10.3431 9 12 9C13.6569 9 15 10.3431 15 12Z"
     stroke="#000000"
     stroke-width="2"
     stroke-linecap="round"
     stroke-linejoin="round"
     id="path2"
     style="stroke:#9b9b9b;stroke-opacity:1" />
  <path
     d="M 13.084329,1.2838347 C 12.83764,1.2118538 12.558466,1.2118538 12,1.2118538 c -0.558466,0 -0.83764,0 -1.084329,0.071981 C 10.554628,1.389187 10.235659,1.6051178 10.003713,1.9012284 9.8452476,2.10353 9.7415615,2.3627812 9.5342014,2.8812835 9.236065,3.6266245 8.4086621,4.0104308 7.6470669,3.7566576 L 6.9628827,3.5286801 C 6.4775479,3.3669059 6.2348746,3.2860068 5.996948,3.27215 5.647448,3.2517844 5.2996022,3.3339061 4.9961077,3.5084104 4.7895027,3.6272119 4.6086334,3.8080931 4.2468829,4.1698436 3.8624054,4.5543212 3.6701606,4.746554 3.5480388,4.9659969 3.3686079,5.2883826 3.2927073,5.6581763 3.3306337,6.0251771 3.3564413,6.2749706 3.4574064,6.5274012 3.6593485,7.0322505 3.975597,7.8228658 3.6713593,8.7261333 2.9412175,9.1643119 L 2.608571,9.3639405 C 2.0992507,9.6695208 1.8445905,9.8223528 1.6596097,10.032722 c -0.1636921,0.186155 -0.2871205,0.404196 -0.3625416,0.640336 -0.085214,0.266827 -0.085214,0.566737 -0.085214,1.166678 0,0.71034 0,1.06539 0.1134194,1.369495 0.1002219,0.268625 0.2632307,0.509321 0.4754216,0.702189 0.2401441,0.21816 0.5666294,0.348817 1.219564,0.61001 0.6672828,0.266826 1.0108493,1.007613 0.783579,1.689423 l -0.2578966,0.77375 c -0.1786278,0.535811 -0.2679536,0.803837 -0.2760687,1.067068 -0.00977,0.316572 0.064237,0.630027 0.2145283,0.908721 0.1249987,0.231945 0.3247352,0.431646 0.7241603,0.831047 0.3994371,0.399401 0.5991617,0.599102 0.830987,0.724124 0.2787537,0.150315 0.5922452,0.224394 0.9087814,0.214565 0.2632548,-0.0082 0.5312083,-0.09745 1.0671155,-0.276057 l 0.6316819,-0.210609 c 0.7615353,-0.253761 1.5889501,0.129938 1.8870746,0.875279 0.2073601,0.51843 0.3110462,0.777705 0.4695112,0.980043 0.231946,0.296075 0.550915,0.512077 0.911958,0.617441 0.246689,0.07192 0.525863,0.07192 1.084329,0.07192 0.558466,0 0.83764,0 1.084329,-0.07192 0.361043,-0.105364 0.680012,-0.321366 0.911958,-0.617441 0.158465,-0.202338 0.262152,-0.461613 0.469524,-0.980043 0.298112,-0.745341 1.125563,-1.12904 1.886966,-0.875039 l 0.631227,0.210489 c 0.535931,0.178604 0.803956,0.267906 1.067187,0.276057 0.316572,0.0097 0.630028,-0.06425 0.908722,-0.214565 0.231825,-0.125022 0.431645,-0.324723 0.831047,-0.724124 0.399401,-0.399401 0.599101,-0.599222 0.724124,-0.831047 0.150315,-0.278694 0.224273,-0.592269 0.214564,-0.908721 -0.0082,-0.263231 -0.09745,-0.531257 -0.276057,-1.067188 l -0.257716,-0.77315 c -0.22739,-0.682051 0.116272,-1.423077 0.783818,-1.690023 0.652923,-0.261193 0.979444,-0.39185 1.21966,-0.61001 0.212167,-0.192868 0.375188,-0.433564 0.475398,-0.702189 0.113395,-0.304105 0.113395,-0.659155 0.113395,-1.369495 0,-0.599941 0,-0.899851 -0.08523,-1.166678 -0.0754,-0.23614 -0.198861,-0.454181 -0.362482,-0.640336 C 22.155362,9.8223528 21.900761,9.6695208 21.391441,9.3639405 L 21.058327,9.1641081 C 20.328209,8.7260015 20.023864,7.8227579 20.340196,7.0321546 20.542054,6.5273293 20.643103,6.2748867 20.668875,6.0250812 20.706753,5.6580804 20.630877,5.2882987 20.451434,4.965901 20.329288,4.7464701 20.137139,4.5542253 19.752602,4.1697477 19.390839,3.8080092 19.209958,3.627128 19.003425,3.5083265 18.699918,3.3338102 18.352061,3.2517005 18.002525,3.2720541 17.764586,3.2859229 17.521973,3.36681 17.036626,3.5285842 L 16.352897,3.7565018 C 15.591374,4.0103469 14.763923,3.6266005 14.465811,2.8812835 14.258439,2.3627812 14.154752,2.10353 13.996287,1.9012283 13.764341,1.6051177 13.445372,1.3891869 13.084329,1.2838347 Z"
     stroke="#000000"
     stroke-width="2.39737"
     stroke-linecap="round"
     stroke-linejoin="round"
     id="path4"
     style="stroke:#9b9b9b;stroke-opacity:1" />
</svg>
