<?xml version="1.0" encoding="UTF-8" standalone="no"?>
<svg
   viewBox="0 0 48 48"
   width="48px"
   height="48px"
   version="1.1"
   id="svg18"
   sodipodi:docname="java-icon-2.svg"
   inkscape:version="1.2.1 (9c6d41e410, 2022-07-14)"
   xmlns:inkscape="http://www.inkscape.org/namespaces/inkscape"
   xmlns:sodipodi="http://sodipodi.sourceforge.net/DTD/sodipodi-0.dtd"
   xmlns="http://www.w3.org/2000/svg"
   xmlns:svg="http://www.w3.org/2000/svg">
  <defs
     id="defs22" />
  <sodipodi:namedview
     id="namedview20"
     pagecolor="#ffffff"
     bordercolor="#cccccc"
     borderopacity="1"
     inkscape:showpageshadow="0"
     inkscape:pageopacity="1"
     inkscape:pagecheckerboard="0"
     inkscape:deskcolor="#d1d1d1"
     showgrid="false"
     inkscape:zoom="8.7187504"
     inkscape:cx="1.4336917"
     inkscape:cy="13.53405"
     inkscape:window-width="1920"
     inkscape:window-height="1017"
     inkscape:window-x="-8"
     inkscape:window-y="-8"
     inkscape:window-maximized="1"
     inkscape:current-layer="svg18" />
  <path
     fill="#f44336"
     d="M 23.586624,25.061641 C 22.407787,23.161092 21.552599,21.585373 20.367857,18.6182 18.364543,13.606372 32.551928,9.0776522 26.799486,0.37575682 29.292998,6.3868802 17.849539,10.102933 16.78646,15.108857 c -0.972127,4.604314 6.794258,9.952784 6.800164,9.952784 z"
     id="path2"
     style="fill:#f44336;fill-opacity:1;stroke:#f44336;stroke-width:0.492703;stroke-dasharray:none;stroke-opacity:1" />
  <path
     fill="#f44336"
     d="m 23.855938,16.051453 c -0.226791,2.971898 2.632892,4.555885 2.715577,6.72693 0.06614,1.767075 -1.709195,3.24003 -1.709195,3.24003 0,0 3.222312,-0.633124 4.227511,-3.32862 1.116234,-2.993159 -2.166319,-5.04254 -1.828496,-7.439193 0.31538,-2.289165 7.123814,-6.5473879 7.123814,-6.5473879 0,0 -10.017752,0.663834 -10.529211,7.3482409 z"
     id="path4"
     style="fill:#f44336;fill-opacity:1;stroke:#f44336;stroke-width:0.492703;stroke-dasharray:none;stroke-opacity:1" />
  <g
     id="g16"
     transform="matrix(1.1811993,0,0,1.1811993,-4.3487397,-4.3478593)"
     style="fill:#1565c0;fill-opacity:1;stroke:#1565c0;stroke-width:0.417121;stroke-dasharray:none;stroke-opacity:1">
    <path
       fill="#1565c0"
       d="m 32.084,25.055 c 1.754,-0.394 3.233,0.723 3.233,2.01 0,2.901 -4.021,5.643 -4.021,5.643 0,0 6.225,-0.742 6.225,-5.505 0,-3.15 -3.057,-3.937 -5.437,-2.148 z m -2.955,2.34 c 0,0 1.941,-1.383 2.458,-1.902 -4.763,1.011 -15.638,1.147 -15.638,0.269 0,-0.809 3.507,-1.638 3.507,-1.638 0,0 -7.773,-0.112 -7.773,2.181 0,2.39 10.175,2.561 17.446,1.09 z"
       id="path6"
       style="fill:#1565c0;fill-opacity:1;stroke:#1565c0;stroke-width:0.417121;stroke-dasharray:none;stroke-opacity:1" />
    <path
       fill="#1565c0"
       d="m 27.935,29.571 c -4.509,1.499 -12.814,1.02 -10.354,-0.993 -1.198,0 -2.974,0.963 -2.974,1.889 0,1.857 8.982,3.291 15.63,0.572 z"
       id="path8"
       style="fill:#1565c0;fill-opacity:1;stroke:#1565c0;stroke-width:0.417121;stroke-dasharray:none;stroke-opacity:1" />
    <path
       fill="#1565c0"
       d="m 18.686,32.739 c -1.636,0 -2.695,1.054 -2.695,1.822 0,2.391 9.76,2.632 13.627,0.205 L 27.16,33.134 c -2.889,1.27 -10.146,1.445 -8.474,-0.395 z"
       id="path10"
       style="fill:#1565c0;fill-opacity:1;stroke:#1565c0;stroke-width:0.417121;stroke-dasharray:none;stroke-opacity:1" />
    <path
       fill="#1565c0"
       d="m 36.281,36.632 c 0,-0.936 -1.055,-1.377 -1.433,-1.588 2.228,5.373 -22.317,4.956 -22.317,1.784 0,-0.721 1.807,-1.427 3.477,-1.093 l -1.42,-0.839 C 11.26,34.374 9,35.837 9,37.017 9,42.52 36.281,42.255 36.281,36.632 Z"
       id="path12"
       style="fill:#1565c0;fill-opacity:1;stroke:#1565c0;stroke-width:0.417121;stroke-dasharray:none;stroke-opacity:1" />
    <path
       fill="#1565c0"
       d="M 39,38.604 C 34.854,42.699 24.341,44.191 13.769,41.661 24.341,46.164 38.95,43.628 39,38.604 Z"
       id="path14"
       style="fill:#1565c0;fill-opacity:1;stroke:#1565c0;stroke-width:0.417121;stroke-dasharray:none;stroke-opacity:1" />
  </g>
</svg>
