<?xml version="1.0" encoding="UTF-8" standalone="no"?>
<svg
   width="800px"
   height="800px"
   viewBox="0 0 32 32"
   fill="none"
   version="1.1"
   id="svg6"
   sodipodi:docname="nodejs-icon.svg"
   inkscape:version="1.2.1 (9c6d41e410, 2022-07-14)"
   xmlns:inkscape="http://www.inkscape.org/namespaces/inkscape"
   xmlns:sodipodi="http://sodipodi.sourceforge.net/DTD/sodipodi-0.dtd"
   xmlns="http://www.w3.org/2000/svg"
   xmlns:svg="http://www.w3.org/2000/svg">
  <defs
     id="defs10" />
  <sodipodi:namedview
     id="namedview8"
     pagecolor="#ffffff"
     bordercolor="#cccccc"
     borderopacity="1"
     inkscape:showpageshadow="0"
     inkscape:pageopacity="1"
     inkscape:pagecheckerboard="0"
     inkscape:deskcolor="#d1d1d1"
     showgrid="false"
     inkscape:zoom="0.73981047"
     inkscape:cx="230.46443"
     inkscape:cy="347.38627"
     inkscape:window-width="1920"
     inkscape:window-height="1017"
     inkscape:window-x="-8"
     inkscape:window-y="-8"
     inkscape:window-maximized="1"
     inkscape:current-layer="svg6" />
  <path
     d="m 17.340044,0.3408931 c -0.811226,-0.45623179 -1.86886,-0.45418601 -2.680771,0 C 10.592856,2.5850223 6.5263487,4.8298258 2.4591781,7.0729264 1.6677584,7.4892712 1.1339698,8.3391613 1.1424844,9.2212696 V 22.780562 c -0.00571,0.899343 0.555595,1.757428 1.3674267,2.16807 1.1682204,0.621505 2.3032168,1.306099 3.4925579,1.886232 1.3738384,0.675107 3.0926593,0.824369 4.483298,0.120346 1.128836,-0.583447 1.630224,-1.881203 1.628738,-3.073813 0.0091,-4.474886 0.0015,-8.949887 0.0035,-13.424888 0.02686,-0.198863 -0.122518,-0.411441 -0.339439,-0.406641 -0.519674,-0.0082 -1.040034,-0.0048 -1.559708,-0.0014 -0.196349,-0.01852 -0.388012,0.144576 -0.3731543,0.341954 -0.00697,4.446086 0.00137,8.893543 -0.00423,13.340314 0.011315,0.615106 -0.4042416,1.20621 -0.9970263,1.413988 -1.3691069,0.479901 -5.2769123,-2.057437 -5.2769123,-2.057437 -0.1434103,-0.0664 -0.2344761,-0.22195 -0.2204185,-0.376469 0,-4.473515 6.971e-4,-8.947145 0,-13.4199741 C 3.327446,9.1105347 3.4385924,8.948118 3.6041977,8.8744928 7.6572535,6.6435869 11.708206,4.4071037 15.761251,2.1748263 c 0.140804,-0.093957 0.337039,-0.093672 0.477501,6.857e-4 4.053044,2.2315917 8.104717,4.4660291 12.158447,6.6970379 0.166177,0.073511 0.272581,0.2386591 0.255666,0.418322 -6.86e-4,4.4728291 0.0014,8.9464591 -0.0014,13.4194021 0.012,0.158291 -0.06983,0.311667 -0.217607,0.381155 -4.015214,2.218814 -8.076145,4.366083 -12.055015,6.649357 -0.173606,0.09955 -0.370298,0.212349 -0.564818,0.102631 -1.04632,-0.578761 -2.079953,-1.180037 -3.122844,-1.764399 -0.113375,-0.07075 -0.257722,-0.101146 -0.376012,-0.02194 -0.467557,0.246408 -0.907343,0.445958 -1.444275,0.658536 -0.754081,0.298524 -0.63362,0.420585 0.04652,0.816826 1.219582,0.690194 2.441221,1.377644 3.660803,2.068524 0.802883,0.501044 1.881661,0.536703 2.710373,0.07372 4.067102,-2.241329 8.132947,-4.485287 12.200849,-6.726616 0.809626,-0.412927 1.373758,-1.267583 1.368044,-2.167612 V 9.2212696 C 30.865393,8.357059 30.352005,7.5223237 29.584438,7.0998187 25.503849,4.844752 21.421318,2.5945883 17.340044,0.3408931 Z"
     fill="#8cc84b"
     id="path2"
     style="stroke-width:1.14289" />
  <path
     d="M 23.476699,10.521197 C 21.880419,9.6672268 19.981386,9.6217396 18.207501,9.7334004 16.925974,9.860033 15.578159,10.213644 14.644529,11.132302 c -0.95763,0.923459 -1.166094,2.414707 -0.711223,3.620231 0.325954,0.851913 1.146437,1.405874 1.994922,1.698912 1.092949,0.385841 2.240872,0.505159 3.389137,0.624477 1.047348,0.108803 2.095039,0.217721 3.1017,0.528931 0.411213,0.136233 0.890085,0.344697 1.016032,0.79214 0.116347,0.529845 -0.0112,1.145751 -0.441385,1.513877 -1.366444,1.08152 -5.167481,0.915801 -6.517581,0.06457 -0.545846,-0.36264 -0.781054,-1.004603 -0.876714,-1.616394 -0.01063,-0.190635 -0.164119,-0.365498 -0.371098,-0.350983 -0.518302,-0.0062 -1.036604,-0.0048 -1.554907,-6.86e-4 -0.180805,-0.0152 -0.368811,0.11349 -0.378755,0.298067 -0.106517,2.802033 2.466937,4.023558 4.8813,4.292481 1.379359,0.131432 2.789004,0.123889 4.147333,-0.17212 1.021061,-0.232465 2.044866,-0.660593 2.747745,-1.447018 0.866771,-0.955802 1.037177,-2.378819 0.648478,-3.569372 -0.297152,-0.888371 -1.146436,-1.458218 -2.014579,-1.75137 -1.180609,-0.404813 -2.579739,-0.62242 -3.649031,-0.724252 -1.554221,-0.148005 -3.401138,-0.08755 -3.841038,-1.108836 -0.175434,-0.53476 -0.02617,-1.198781 0.465273,-1.527706 1.30027,-0.881971 3.946641,-0.764824 5.293198,-0.105946 0.618306,0.30961 0.976603,0.945516 1.124493,1.587479 0.02743,0.188578 0.154291,0.385384 0.372584,0.377155 0.514759,0.01029 1.029518,0.0027 1.544164,0.0034 0.176805,0.01234 0.370411,-0.08743 0.404927,-0.268466 -0.02183,-1.341757 -0.706994,-2.715287 -1.942805,-3.369708 z"
     fill="#8cc84b"
     id="path4"
     style="stroke-width:1.14289" />
</svg>
