<?xml version="1.0" encoding="UTF-8"?>
<svg id="Capa_1" xmlns="http://www.w3.org/2000/svg" version="1.1" viewBox="0 0 48 48">
  <!-- Generator: Adobe Illustrator 29.5.1, SVG Export Plug-In . SVG Version: 2.1.0 Build 141)  -->
  <defs>
    <style>
      .st0 {
        fill: #020f16;
      }

      .st1 {
        fill: #03a9f4;
      }
    </style>
  </defs>
  <path class="st1" d="M0,5.33C0,2.39,2.39,0,5.33,0h37.33C45.61,0,48,2.39,48,5.33v37.33c0,2.95-2.39,5.33-5.33,5.33H5.33C2.39,48,0,45.61,0,42.67V5.33Z"/>
  <path class="st0" d="M18.69,17.57h-2.67v5.91h2.63c.73,0,1.29-.24,1.69-.72s.6-1.17.6-2.08-.2-1.7-.61-2.26-.96-.84-1.64-.85Z"/>
  <path class="st0" d="M4,4v40h40V4H4ZM23.15,25.05c-1.1,1.08-2.63,1.61-4.58,1.61h-2.55v6.67h-3.83V14.37h6.46c1.87,0,3.37.58,4.49,1.75s1.67,2.67,1.67,4.53-.55,3.32-1.65,4.4ZM35.58,32.45c-.95.76-2.19,1.15-3.72,1.15-1.03,0-1.95-.2-2.73-.61s-1.41-.97-1.86-1.69-.67-1.5-.67-2.33h3.5c.02.64.17,1.12.45,1.45s.74.48,1.39.48c.99,0,1.48-.45,1.48-1.34,0-.31-.15-.6-.45-.87s-.96-.62-2-1.07c-1.52-.62-2.56-1.25-3.13-1.91s-.85-1.48-.85-2.46c0-1.23.45-2.25,1.33-3.05s2.07-1.2,3.53-1.2c1.54,0,2.78.4,3.71,1.2.93.8,1.39,1.87,1.39,3.22h-3.69c0-1.15-.48-1.72-1.43-1.72-.39,0-.71.12-.96.36s-.38.58-.38,1.02c0,.31.14.59.42.83s.93.58,1.97,1.02c1.5.56,2.56,1.17,3.18,1.86s.93,1.57.93,2.65c0,1.26-.47,2.27-1.42,3.03Z"/>
</svg>