<?xml version="1.0" encoding="UTF-8" standalone="no"?>
<!-- Uploaded to: SVG Repo, www.svgrepo.com, Generator: SVG Repo Mixer Tools -->

<svg
   width="800px"
   height="800px"
   viewBox="0 0 24 24"
   fill="none"
   version="1.1"
   id="svg4"
   sodipodi:docname="sql2-icon.svg"
   inkscape:version="1.2.1 (9c6d41e410, 2022-07-14)"
   xmlns:inkscape="http://www.inkscape.org/namespaces/inkscape"
   xmlns:sodipodi="http://sodipodi.sourceforge.net/DTD/sodipodi-0.dtd"
   xmlns="http://www.w3.org/2000/svg"
   xmlns:svg="http://www.w3.org/2000/svg">
  <defs
     id="defs8" />
  <sodipodi:namedview
     id="namedview6"
     pagecolor="#ffffff"
     bordercolor="#cccccc"
     borderopacity="1"
     inkscape:showpageshadow="0"
     inkscape:pageopacity="1"
     inkscape:pagecheckerboard="0"
     inkscape:deskcolor="#d1d1d1"
     showgrid="false"
     inkscape:zoom="0.73981047"
     inkscape:cx="-43.93017"
     inkscape:cy="362.25494"
     inkscape:window-width="1920"
     inkscape:window-height="1017"
     inkscape:window-x="-8"
     inkscape:window-y="-8"
     inkscape:window-maximized="1"
     inkscape:current-layer="svg4" />
  <path
     d="m 21.817009,4.3645485 c 0,1.8072568 -4.395184,3.2723364 -9.817009,3.2723364 -5.4217813,0 -9.817009,-1.4650796 -9.817009,-3.2723364 m 19.634018,0 c 0,-1.8072568 -4.395184,-3.2723363 -9.817009,-3.2723363 -5.4217813,0 -9.817009,1.4650795 -9.817009,3.2723363 m 19.634018,0 V 19.635451 c 0,1.810693 -4.363115,3.272337 -9.817009,3.272337 -5.4538939,0 -9.817009,-1.461644 -9.817009,-3.272337 V 4.3645485 m 19.634018,5.1487049 c 0,1.8106816 -4.363115,3.2723256 -9.817009,3.2723256 -5.4538939,0 -9.817009,-1.461644 -9.817009,-3.2723256 m 19.634018,5.1482476 c 0,1.810692 -4.363115,3.272335 -9.817009,3.272335 -5.4538939,0 -9.817009,-1.461643 -9.817009,-3.272335"
     stroke="#000000"
     stroke-width="2.18155"
     stroke-linecap="round"
     stroke-linejoin="round"
     id="path2"
     style="stroke:#33a9b5;stroke-opacity:1" />
</svg>
